<?xml version="1.0" standalone="no"?>
<!DOCTYPE svg PUBLIC "-//W3C//DTD SVG 20010904//EN"
 "http://www.w3.org/TR/2001/REC-SVG-20010904/DTD/svg10.dtd">
<svg version="1.0" xmlns="http://www.w3.org/2000/svg"
 width="612.000000pt" height="612.000000pt" viewBox="0 0 612.000000 612.000000"
 preserveAspectRatio="xMidYMid meet">

<g transform="translate(0.000000,612.000000) scale(0.100000,-0.100000)"
fill="#000000" stroke="none">
<path d="M3335 4155 c-34 -8 -288 -117 -595 -257 l-535 -244 -7 -49 c-19 -125
24 -226 117 -274 65 -33 199 -41 293 -17 88 23 279 105 472 203 90 46 170 82
176 81 9 -2 479 -429 504 -458 3 -3 64 -60 135 -125 72 -66 159 -147 195 -181
36 -33 95 -88 131 -121 l66 -61 147 36 c113 28 146 40 146 53 0 8 -27 126 -59
260 -32 134 -89 371 -127 525 l-67 281 -81 6 c-154 10 -236 48 -432 202 -117
91 -174 122 -263 141 -81 17 -137 17 -216 -1z"/>
<path d="M2660 4141 c-61 -20 -219 -92 -480 -218 -205 -99 -271 -117 -387
-110 l-82 6 -190 -572 c-105 -315 -191 -577 -191 -582 0 -8 202 -119 205 -112
0 1 40 54 87 117 54 71 103 126 130 143 181 117 398 35 462 -175 3 -10 13 -18
23 -18 27 0 114 -43 152 -76 33 -28 91 -133 91 -166 0 -10 12 -19 33 -23 49
-11 118 -49 156 -87 37 -36 81 -120 81 -155 0 -17 9 -23 50 -33 49 -12 117
-54 153 -94 10 -12 29 -43 42 -71 32 -65 34 -178 6 -242 l-19 -42 51 -35 c134
-91 252 -64 303 70 l18 47 -203 199 c-174 172 -202 203 -199 226 6 56 39 34
263 -183 120 -116 231 -215 249 -222 43 -16 120 -16 160 1 45 19 78 69 83 125
l5 46 -186 185 c-249 246 -230 224 -217 249 24 45 49 27 272 -195 l217 -217
61 5 c40 3 71 11 89 25 39 29 73 95 79 157 l6 54 -208 204 c-175 172 -207 207
-201 225 8 25 32 36 52 25 8 -5 104 -97 212 -205 220 -219 221 -219 306 -177
63 31 99 90 104 168 l4 64 -93 92 c-89 86 -405 381 -798 744 l-174 161 -116
-58 c-150 -75 -348 -162 -432 -190 -36 -12 -101 -26 -143 -30 -320 -36 -508
151 -456 453 7 41 15 78 19 83 6 10 81 45 528 248 155 71 280 132 278 136 -8
13 -98 39 -150 44 -34 3 -68 -1 -105 -14z"/>
<path d="M1101 4071 c-13 -4 -28 -13 -33 -21 -14 -23 -388 -1152 -388 -1170 0
-9 6 -24 13 -33 17 -23 482 -181 512 -173 12 3 26 14 30 23 4 10 95 279 201
598 193 575 194 580 176 604 -14 19 -63 40 -208 88 -251 84 -275 91 -303 84z"/>
<path d="M4815 3985 c-55 -14 -149 -36 -210 -50 -137 -32 -173 -47 -181 -79
-3 -15 22 -141 66 -323 40 -164 101 -417 136 -563 45 -189 68 -269 81 -278 24
-18 56 -13 308 48 238 57 251 65 241 135 -3 22 -39 177 -80 345 -41 168 -98
404 -126 525 -31 128 -59 227 -69 237 -27 28 -61 28 -166 3z"/>
<path d="M1845 2736 c-39 -18 -62 -40 -132 -131 -89 -116 -97 -133 -97 -190 0
-63 26 -118 72 -153 32 -24 44 -27 117 -27 l81 0 -4 -56 c-10 -142 124 -239
255 -184 46 20 46 20 28 -15 -21 -41 -19 -116 6 -167 41 -86 162 -120 254 -73
22 11 40 20 42 20 1 0 -2 -12 -8 -27 -13 -35 -3 -112 21 -150 10 -17 35 -43
55 -59 31 -23 48 -28 94 -29 82 0 121 24 196 120 72 92 85 119 85 176 0 57
-21 100 -70 142 -66 56 -164 60 -224 8 -10 -9 -17 -11 -14 -6 2 6 12 28 22 50
24 53 18 131 -15 179 -50 73 -161 103 -236 63 l-32 -17 15 35 c34 82 5 184
-67 232 -34 22 -54 28 -98 28 -31 0 -64 -4 -73 -9 -16 -7 -17 -4 -12 36 7 52
-8 115 -37 152 -46 59 -153 84 -224 52z"/>
</g>
</svg>
